{"title":"The.Scopia.Effect.2014.1080p.WEB-DL.DD5.1.H264-RARBG","uid":11897087,"size":3755251769,"categoryP":"video","categoryS":"hd___movies","magnet":"?xt=urn:btih:1221963d747f64c7178cb305a4dd7d5f997a2846&amp;dn=The.Scopia.Effect.2014.1080p.WEB-DL.DD5.1.H264-RARBG&amp;tr=udp%3A%2F%2Ftracker.openbittorrent.com%3A80&amp;tr=udp%3A%2F%2Fopen.demonii.com%3A1337&amp;tr=udp%3A%2F%2Ftracker.coppersurfer.tk%3A6969&amp;tr=udp%3A%2F%2Fexodus.desync.com%3A6969","seeders":28,"leechers":4,"uploader":"vickey1992","files":4,"time":1431195300,"description":"Video\nID                                       : 1\nFormat                                   : AVC\nFormat/Info                              : Advanced Video Codec\nFormat profile                           : &lt;a class=&quot;__cf_email__&quot; href=&quot;/cdn-cgi/l/email-protection&quot; data-cfemail=&quot;5f173638371f136b716f&quot;&gt;[email&amp;#160;protected]&lt;/a&gt;&lt;script cf-hash='f9e31' type=&quot;text/javascript&quot;&gt;\n/* &lt;![CDATA[ */!function(){try{var t=&quot;currentScript&quot;in document?document.currentScript:function(){for(var t=document.getElementsByTagName(&quot;script&quot;),e=t.length;e--;)if(t[e].getAttribute(&quot;cf-hash&quot;))return t[e]}();if(t&amp;&amp;t.previousSibling){var e,r,n,i,c=t.previousSibling,a=c.getAttribute(&quot;data-cfemail&quot;);if(a){for(e=&quot;&quot;,r=parseInt(a.substr(0,2),16),n=2;a.length-n;n+=2)i=parseInt(a.substr(n,2),16)^r,e+=String.fromCharCode(i);e=document.createTextNode(e),c.parentNode.replaceChild(e,c)}}}catch(u){}}();/* ]]&gt; */&lt;/script&gt;\nFormat settings, CABAC                   : Yes\nFormat settings, ReFrames                : 5 frames\nCodec ID                                 : V_MPEG4/ISO/AVC\nDuration                                 : 1h 42mn\nBit rate                                 : 4 383 Kbps\nWidth                                    : 1 912 pixels\nHeight                                   : 792 pixels\nDisplay aspect ratio                     : 2.40:1\nFrame rate mode                          : Constant\nFrame rate                               : 25.000 fps\nColor space                              : YUV\nChroma subsampling                       : 4:2:0\nBit depth                                : 8 bits\nScan type                                : Progressive\nBits/(Pixel*Frame)                       : 0.116\nStream size                              : 3.15 GiB (90%)\nTitle                                    : The.Scopia.Effect.2014.1080p.WEB-DL.DD5.1.H264-RARBG\nLanguage                                 : English\nDefault                                  : Yes\nForced                                   : No\nColor primaries                          : BT.709\nTransfer characteristics                 : BT.709\nMatrix coefficients                      : BT.709\nColor range                              : Limited\n\nAudio\nID                                       : 2\nFormat                                   : AC-3\nFormat/Info                              : Audio Coding 3\nMode extension                           : CM (complete main)\nFormat settings, Endianness              : Big\nCodec ID                                 : A_AC3\nDuration                                 : 1h 42mn\nBit rate mode                            : Constant\nBit rate                                 : 384 Kbps\nChannel(s)                               : 6 channels\nChannel positions                        : Front: L C R, Side: L R, LFE\nSampling rate                            : 48.0 KHz\nBit depth                                : 16 bits\nCompression mode                         : Lossy\nStream size                              : 283 MiB (8%)\nTitle                                    : The.Scopia.Effect.2014.1080p.WEB-DL.DD5.1.H264-RARBG\nLanguage                                 : English\nDefault                                  : Yes\nForced                                   : No\n\nMenu\n00:00:00.000                             : en:Chapter 1\n00:10:04.000                             : en:Chapter 2\n00:18:35.000                             : en:Chapter 3\n00:27:35.000                             : en:Chapter 4\n00:36:01.000                             : en:Chapter 5\n00:45:33.000                             : en:Chapter 6\n00:54:28.000                             : en:Chapter 7\n01:04:08.000                             : en:Chapter 8\n01:13:45.000                             : en:Chapter 9\n01:22:14.000                             : en:Chapter 10\n01:30:11.000                             : en:Chapter 11\n01:38:57.000                             : en:Chapter 12","torrent":{"xt":"urn:btih:1221963d747f64c7178cb305a4dd7d5f997a2846","amp;dn":"The.Scopia.Effect.2014.1080p.WEB-DL.DD5.1.H264-RARBG","amp;tr":["udp%3A%2F%2Ftracker.openbittorrent.com%3A80","udp%3A%2F%2Fopen.demonii.com%3A1337","udp%3A%2F%2Ftracker.coppersurfer.tk%3A6969","udp%3A%2F%2Fexodus.desync.com%3A6969"],"infoHash":"1221963d747f64c7178cb305a4dd7d5f997a2846","infoHashBuffer":{"type":"Buffer","data":[18,33,150,61,116,127,100,199,23,140,179,5,164,221,125,95,153,122,40,70]},"announce":[],"urlList":[]}}